<svg width="56" height="80" viewBox="0 0 56 80" fill="none" xmlns="http://www.w3.org/2000/svg">
    <path d="M48.9211 51.2053L35.7419 46.8114V44.1381C38.5935 42.2738 40.7274 39.4115 41.6631 36.0515C44.8592 35.671 47.3548 32.9744 47.3548 29.6774V19.3548C47.3548 8.68259 38.6723 0 28 0C17.3277 0 8.64516 8.68259 8.64516 19.3548V29.6774C8.64516 32.9744 11.1408 35.671 14.3369 36.0515C15.2707 39.4128 17.4065 42.2738 20.2581 44.1381V46.8114L7.07888 51.204C3.38559 52.4364 0.903229 55.8802 0.903229 59.7744V80H55.0968V59.7744C55.0968 55.8802 52.6144 52.4364 48.9211 51.2053ZM40.374 51.0761L36.6183 58.59L30.0231 52.9379L34.7112 49.1885L40.374 51.0761ZM26.5125 64.5161H29.4875L31.6385 77.4193H24.3615L26.5125 64.5161ZM29.5241 61.9355H26.4772L25.449 56.7899L28 54.6024L30.5523 56.7899L29.5241 61.9355ZM31.2334 34.3599L28 31.9355L24.7666 34.3599L25.5536 30.4234L22.0505 27.7961L26.3575 26.9355L28 22.8283L29.6413 26.9342L33.9482 27.7949L30.4452 30.4221L31.2334 34.3599ZM16.3871 26.2966V23.2258H25.0621L24.4812 24.6774L16.3871 26.2966ZM31.52 24.6774L30.9379 23.2258H39.6129V26.2966L31.52 24.6774ZM42.1394 33.3279C42.1665 32.9732 42.1935 32.6191 42.1935 32.2581V26.044C43.6918 26.5783 44.7742 27.9977 44.7742 29.6774C44.7742 31.3766 43.666 32.8087 42.1394 33.3279ZM28 2.58065C37.249 2.58065 44.7742 10.1058 44.7742 19.3548V24.5495C44.0207 23.9793 43.1525 23.5522 42.1935 23.3575V20.6452H29.9059L28 15.8814L26.0941 20.6452H13.8065V23.3562C12.8475 23.5522 11.9793 23.9781 11.2258 24.5483V19.3548C11.2258 10.1058 18.751 2.58065 28 2.58065ZM11.2258 29.6774C11.2258 27.9977 12.3082 26.5783 13.8065 26.044V32.2581C13.8065 32.6191 13.8335 32.9732 13.8606 33.3279C12.334 32.8087 11.2258 31.3766 11.2258 29.6774ZM16.3871 32.2581V26.7742L22.7045 31.5121L20.9108 40.4788L28 35.1613L35.0892 40.4788L33.2955 31.5121L39.6129 26.7742V32.2581C39.6129 38.6605 34.4037 43.871 28 43.871C21.5963 43.871 16.3871 38.6605 16.3871 32.2581ZM28 46.4516C29.8221 46.4516 31.5585 46.0944 33.1613 45.4656V47.1213L28 51.2506L22.8387 47.1213V45.4656C24.4415 46.0944 26.1779 46.4516 28 46.4516ZM21.2901 49.1885L25.9782 52.9379L19.3829 58.59L15.6273 51.0761L21.2901 49.1885ZM3.48387 59.7744C3.48387 56.9922 5.25681 54.5331 7.89542 53.653L13.1525 51.9008L18.5525 62.7004L23.201 58.716L24.107 63.2466L21.7456 77.4193H12.5161V63.2258H9.93549V77.4193H3.48387V59.7744ZM52.5161 77.4193H46.0645V63.2258H43.4839V77.4193H34.2544L31.8918 63.2453L32.7971 58.7147L37.4462 62.6991L42.8463 51.8996L48.1033 53.6517C50.7432 54.5331 52.5161 56.9922 52.5161 59.7744V77.4193Z" fill="#C7AB8E"/>
</svg>
