<svg width="80" height="74" viewBox="0 0 80 74" fill="none" xmlns="http://www.w3.org/2000/svg">
    <path d="M71.5384 0.846069H8.46156C3.79578 0.846069 0 4.64201 0 9.30763V43.923V49.3076C0 53.9733 3.79578 57.7692 8.46156 57.7692H28.8927L26.4311 70.0769H18.4616C17.6119 70.0769 16.9231 70.7656 16.9231 71.6153C16.9231 72.465 17.6119 73.1537 18.4616 73.1537H61.5384C62.3881 73.1537 63.0769 72.465 63.0769 71.6153C63.0769 70.7656 62.3881 70.0769 61.5384 70.0769H53.5689L51.1073 57.7692H71.5384C76.2041 57.7692 80 53.9734 80 49.3076V43.923V9.30763C80 4.64201 76.2042 0.846069 71.5384 0.846069ZM29.5689 70.0769L32.0305 57.7692H47.9695L50.4311 70.0769H29.5689ZM76.9231 49.3076C76.9231 52.2767 74.5077 54.6923 71.5384 54.6923H8.46156C5.4925 54.6923 3.07687 52.2769 3.07687 49.3076V45.4615H76.923V49.3076H76.9231ZM76.9231 42.3847H3.07687V39.3078H12.3077C13.1573 39.3078 13.8461 38.619 13.8461 37.7694C13.8461 36.9197 13.1573 36.2309 12.3077 36.2309H3.07687V9.30763C3.07687 6.33857 5.49234 3.92294 8.46156 3.92294H71.5384C74.5075 3.92294 76.9231 6.33841 76.9231 9.30763V42.3847Z" fill="#C7AB8E"/>
</svg>
