<svg width="80" height="80" viewBox="0 0 80 80" fill="none" xmlns="http://www.w3.org/2000/svg">
    <path d="M79.541 0.457656C79.2479 0.164687 78.8504 0 78.4359 0L39.9993 0.00203125C39.1365 0.00203125 38.437 0.701719 38.437 1.56453V6.03281L23.6262 10.0014C22.7926 10.2248 22.2979 11.0816 22.5214 11.915L30.1975 40.5622L23.557 47.2027C22.7118 45.9686 21.2928 45.157 19.6876 45.157H4.68808C2.10339 45.157 0.000732422 47.2598 0.000732422 49.8444V75.3125C0.000732422 77.8972 2.10339 80 4.68808 80H19.6878C21.8835 80 23.7307 78.4819 24.237 76.4406L26.0948 78.0608C27.529 79.3114 29.3665 80.0002 31.2695 80.0002H78.4362C79.299 80.0002 79.9987 79.3005 79.9987 78.4377V1.5625C79.9984 1.14813 79.834 0.750625 79.541 0.457656ZM21.25 75.3127C21.25 76.1741 20.549 76.8752 19.6875 76.8752H4.68792C3.82636 76.8752 3.12542 76.1742 3.12542 75.3127V49.8445C3.12542 48.983 3.82636 48.282 4.68792 48.282H10.6253V66.2812C10.6253 67.1441 11.325 67.8438 12.1878 67.8438C13.0506 67.8438 13.7503 67.1441 13.7503 66.2812V48.282H19.6876C20.5492 48.282 21.2501 48.983 21.2501 49.8445V75.3127H21.25ZM25.9442 12.6155L38.437 9.26797V15.0578L37.3898 15.3384C36.9893 15.4458 36.6482 15.7075 36.441 16.0664C36.2339 16.4253 36.1776 16.8517 36.285 17.252C36.8854 19.4928 35.5509 21.8042 33.3101 22.4047C32.9093 22.5122 32.5676 22.7744 32.3606 23.1341C32.1535 23.4936 32.0978 23.9208 32.206 24.3214L38.2965 46.8742H35.1606L33.5445 40.5517C33.4931 40.3505 33.4031 40.165 33.2826 40.0037L25.9442 12.6155ZM38.437 22.2233V35.4078L35.5871 24.8555C36.7776 24.2408 37.7518 23.3211 38.437 22.2233ZM60.8845 76.875H31.2692C30.1215 76.875 29.0132 76.4597 28.1482 75.7055L24.375 72.4147V50.8042L31.1965 43.9827L32.4337 48.8233C32.6106 49.515 33.2335 49.9987 33.9475 49.9987L64.6668 50.0006C65.8731 50.0006 66.8543 50.9819 66.8543 52.1881C66.8543 53.3944 65.8731 54.3756 64.6668 54.3756H48.9262C48.0634 54.3756 47.3637 55.0753 47.3637 55.9381C47.3637 56.8009 48.0634 57.5006 48.9262 57.5006H69.5575C70.7637 57.5006 71.745 58.4819 71.745 59.6881C71.745 60.8944 70.7637 61.8756 69.5575 61.8756H48.9262C48.0634 61.8756 47.3637 62.5753 47.3637 63.4381C47.3637 64.3009 48.0634 65.0006 48.9262 65.0006H66.2142C67.4204 65.0006 68.4017 65.9819 68.4017 67.1881C68.4017 68.3944 67.4204 69.3756 66.2142 69.3756H48.9262C48.0634 69.3756 47.3637 70.0753 47.3637 70.9381C47.3637 71.8009 48.0634 72.5006 48.9262 72.5006H60.8845C62.0907 72.5006 63.072 73.4819 63.072 74.6881C63.0718 75.8938 62.0906 76.875 60.8845 76.875ZM76.8737 76.875H76.8736H65.7237C66.0267 76.2073 66.1968 75.4672 66.1968 74.6875C66.1968 73.9078 66.0267 73.1677 65.7237 72.5H66.2142C69.1434 72.5 71.5265 70.1169 71.5265 67.1877C71.5265 66.3333 71.3226 65.5259 70.9626 64.81C73.212 64.1922 74.8696 62.1305 74.8696 59.6878C74.8696 58.5028 74.4793 57.4073 73.821 56.523V36.7198C73.821 35.857 73.1214 35.1573 72.2585 35.1573C71.3957 35.1573 70.696 35.857 70.696 36.7198V54.4998C70.3289 54.4194 69.9481 54.3756 69.5571 54.3756H69.5059C69.8089 53.708 69.979 52.9678 69.979 52.1881C69.979 49.2588 67.5959 46.8758 64.6667 46.8758H62.155C64.822 45.732 66.6951 43.0811 66.6951 40C66.6951 35.8767 63.3407 32.5222 59.2175 32.5222C55.0943 32.5222 51.7398 35.8767 51.7398 40C51.7398 43.0811 53.6131 45.732 56.28 46.8758H47.7389V17.1661C50.5301 16.5578 52.7326 14.3555 53.3407 11.5641H65.094C65.7021 14.3555 67.9046 16.5578 70.6959 17.1661V22.0239C70.6959 22.8867 71.3956 23.5864 72.2584 23.5864C73.1212 23.5864 73.8209 22.8867 73.8209 22.0239V15.7711C73.8209 14.9083 73.1212 14.2086 72.2584 14.2086C69.9385 14.2086 68.0515 12.3212 68.0515 10.0016C68.0515 9.13875 67.3518 8.43906 66.489 8.43906H51.9459C51.0831 8.43906 50.3834 9.13875 50.3834 10.0016C50.3834 12.3214 48.4962 14.2086 46.1765 14.2086C45.3137 14.2086 44.614 14.9083 44.614 15.7711V46.8756H41.5621V3.12672L76.8737 3.125V76.875ZM59.2178 44.3528C56.8176 44.3528 54.8651 42.4002 54.8651 40.0002C54.8651 37.6002 56.8178 35.6473 59.2178 35.6473C61.6178 35.6473 63.5704 37.6 63.5704 40C63.5704 42.4 61.6179 44.3528 59.2178 44.3528Z" fill="#C7AB8E"/>
</svg>