<?xml version="1.0" encoding="utf-8"?>
<!-- Generator: Adobe Illustrator 24.0.1, SVG Export Plug-In . SVG Version: 6.00 Build 0)  -->
<svg version="1.1" id="Слой_1" xmlns="http://www.w3.org/2000/svg" xmlns:xlink="http://www.w3.org/1999/xlink" x="0px" y="0px"
	 viewBox="0 0 458.64 275.07" style="enable-background:new 0 0 458.64 275.07;" xml:space="preserve">
<style type="text/css">
	.st0{fill:#C7AB8E;}
	.st1{fill-rule:evenodd;clip-rule:evenodd;fill:#C7AB8E;}
</style>
<g>
	<g>
		<g>
			<path class="st0" d="M55.47,150.5h13.87v0.99l-5.94,1.49v64.38l5.94,1.49v0.99h-20.3v-0.99l5.94-1.49v-58.44l-21.29,62.4h-1.49
				l-23.77-62.4v57.45l6.44,2.48v0.99H0v-0.99l6.44-2.48v-62.89L0,151.49v-0.99h14.36l21.69,56.95L55.47,150.5z"/>
			<path class="st0" d="M92.61,206.95v10.4l5.94,1.49v0.99h-20.3v-0.99l5.94-1.49v-64.38l-5.94-1.49v-0.99h20.3v0.99l-5.94,1.49
				v50.02l20.3-40.61v-9.41l-5.94-1.49v-0.99h20.3v0.99l-5.94,1.49v64.38l5.94,1.49v0.99h-20.3v-0.99l5.94-1.49v-51.01L92.61,206.95
				z"/>
			<path class="st0" d="M150.55,195.07v22.29l5.94,1.49v0.99h-20.3v-0.99l5.94-1.49v-64.38l-5.94-1.49v-0.99h17.83
				c4.09,0,7.74,0.56,10.94,1.68s5.89,2.67,8.07,4.65c2.18,1.98,3.85,4.33,5,7.03c1.15,2.71,1.73,5.68,1.73,8.91
				c0,3.24-0.58,6.21-1.73,8.91c-1.16,2.71-2.82,5.05-5,7.03c-2.18,1.98-4.87,3.53-8.07,4.65c-3.2,1.13-6.85,1.68-10.94,1.68H150.55
				z M150.55,193.09h3.47c5.22,0,9.24-1.58,12.08-4.75c2.84-3.17,4.26-8.35,4.26-15.55c0-7.2-1.42-12.38-4.26-15.55
				c-2.84-3.17-6.87-4.75-12.08-4.75h-3.47V193.09z"/>
			<path class="st0" d="M241.67,187.64c-0.99,0.66-2.08,1.26-3.27,1.78c-1.06,0.46-2.28,0.86-3.66,1.19
				c-1.39,0.33-2.87,0.5-4.46,0.5c-5.75,0-10.07-1.37-12.97-4.11c-2.91-2.74-4.36-6.49-4.36-11.24v-22.78l-5.94-1.49v-0.99h20.3
				v0.99l-5.94,1.49v22.78c0,4.75,0.91,8.17,2.72,10.25c1.81,2.08,4.21,3.12,7.18,3.12c1.32,0,2.63-0.16,3.91-0.5
				c1.29-0.33,2.39-0.73,3.32-1.19c1.12-0.53,2.18-1.12,3.17-1.78v-32.68l-5.94-1.49v-0.99h20.3v0.99l-5.94,1.49v64.38l5.94,1.49
				v0.99h-20.3v-0.99l5.94-1.49V187.64z"/>
			<path class="st0" d="M293.66,199.52h-20.3l-4.95,16.84l6.44,2.48v0.99h-14.86v-0.99l6.44-2.48l19.31-67.35h1.49l20.8,68.34
				l5.94,1.49v0.99h-20.8v-0.99l5.94-1.49L293.66,199.52z M273.85,197.64h19.22l-9.9-32.78L273.85,197.64z"/>
			<path class="st0" d="M338.23,150.99c-1.85,0-3.66,0.53-5.45,1.58c-1.78,1.06-3.37,2.89-4.75,5.5c-1.39,2.61-2.51,6.11-3.37,10.5
				c-0.86,4.39-1.29,9.92-1.29,16.59c0,6.67,0.43,12.2,1.29,16.59c0.86,4.39,2.01,7.89,3.47,10.5c1.45,2.61,3.14,4.44,5.05,5.5
				c1.92,1.06,3.93,1.58,6.04,1.58c1.72,0,3.47-0.46,5.25-1.39c1.78-0.92,3.42-2.21,4.9-3.86c1.49-1.65,2.74-3.6,3.76-5.85
				c1.02-2.24,1.67-4.65,1.93-7.23h1.49c-0.27,2.97-0.92,5.7-1.98,8.17c-1.06,2.48-2.39,4.62-4.01,6.44
				c-1.62,1.82-3.48,3.22-5.6,4.21c-2.11,0.99-4.36,1.49-6.74,1.49c-3.1,0-6.11-0.74-9.01-2.23s-5.5-3.73-7.77-6.73
				c-2.28-3.01-4.1-6.77-5.45-11.29c-1.35-4.52-2.03-9.82-2.03-15.9c0-6.07,0.68-11.37,2.03-15.9c1.35-4.52,3.14-8.29,5.35-11.29
				c2.21-3,4.7-5.25,7.48-6.73c2.77-1.49,5.58-2.23,8.42-2.23c1.58,0,3.02,0.27,4.31,0.79c1.29,0.53,2.39,1.13,3.32,1.78
				c1.05,0.73,1.98,1.55,2.77,2.48c0.53-0.99,1.24-1.93,2.13-2.82c0.89-0.89,1.83-1.47,2.82-1.73h1.49
				c-0.13,0.99-0.23,1.98-0.3,2.97c-0.07,0.93-0.12,1.9-0.15,2.92c-0.03,1.02-0.05,2.03-0.05,3.02c0,1.12,0.02,2.23,0.05,3.32
				c0.03,1.09,0.08,2.1,0.15,3.02c0.06,1.06,0.16,2.08,0.3,3.07h-1.49c-1.52-5.48-3.55-9.66-6.09-12.53
				C343.96,152.43,341.2,150.99,338.23,150.99z"/>
			<path class="st0" d="M407.07,185.16c0,6.08-0.68,11.37-2.03,15.9c-1.35,4.52-3.14,8.29-5.35,11.29c-2.21,3-4.7,5.25-7.48,6.73
				c-2.77,1.49-5.58,2.23-8.42,2.23c-2.84,0-5.64-0.74-8.42-2.23c-2.77-1.49-5.27-3.73-7.48-6.73c-2.21-3.01-4-6.77-5.35-11.29
				c-1.35-4.52-2.03-9.82-2.03-15.9c0-6.07,0.68-11.37,2.03-15.9c1.35-4.52,3.14-8.29,5.35-11.29c2.21-3,4.7-5.25,7.48-6.73
				c2.77-1.49,5.58-2.23,8.42-2.23c2.84,0,5.65,0.74,8.42,2.23c2.77,1.49,5.27,3.73,7.48,6.73c2.21,3.01,3.99,6.77,5.35,11.29
				C406.39,173.79,407.07,179.09,407.07,185.16z M397.66,185.16c0-6.8-0.41-12.43-1.24-16.89c-0.83-4.46-1.92-8.01-3.27-10.65
				c-1.35-2.64-2.86-4.49-4.51-5.55c-1.65-1.06-3.27-1.58-4.85-1.58c-1.58,0-3.2,0.53-4.85,1.58c-1.65,1.06-3.15,2.91-4.51,5.55
				c-1.35,2.64-2.44,6.19-3.27,10.65c-0.83,4.46-1.24,10.09-1.24,16.89c0,6.8,0.41,12.43,1.24,16.89c0.83,4.46,1.92,8.01,3.27,10.65
				c1.35,2.64,2.86,4.49,4.51,5.55c1.65,1.06,3.27,1.58,4.85,1.58c1.58,0,3.2-0.53,4.85-1.58c1.65-1.06,3.15-2.91,4.51-5.55
				c1.35-2.64,2.44-6.19,3.27-10.65C397.25,197.59,397.66,191.96,397.66,185.16z"/>
			<path class="st0" d="M415.49,219.83v-0.99l5.94-1.49v-64.38l-5.94-1.49v-0.99h17.83c3.1,0,5.79,0.35,8.07,1.04
				c2.28,0.69,4.17,1.65,5.7,2.87c1.52,1.22,2.66,2.64,3.42,4.26c0.76,1.62,1.14,3.35,1.14,5.2c0,1.45-0.21,2.74-0.64,3.86
				c-0.43,1.12-0.99,2.1-1.68,2.92c-0.69,0.83-1.49,1.55-2.38,2.18c-0.89,0.63-1.8,1.14-2.72,1.54c-2.18,0.99-4.66,1.62-7.43,1.88
				c4.09,0.4,7.72,1.42,10.89,3.07c1.39,0.73,2.72,1.6,4.01,2.63c1.29,1.02,2.44,2.28,3.47,3.76s1.85,3.2,2.48,5.15
				s0.94,4.18,0.94,6.69c0,3.1-0.59,6.01-1.78,8.71c-1.19,2.71-2.89,5.07-5.1,7.08c-2.21,2.01-4.87,3.6-7.97,4.75
				c-3.1,1.15-6.57,1.73-10.4,1.73H415.49z M429.85,175.26h3.47c2.97-0.06,5.36-1.04,7.18-2.92c1.81-1.88,2.72-4.7,2.72-8.47
				c0-3.76-0.91-6.6-2.72-8.52c-1.82-1.92-4.21-2.87-7.18-2.87h-3.47V175.26z M429.85,177.24v40.61h3.47c2.24,0,4.32-0.43,6.24-1.29
				s3.58-2.15,5-3.87c1.42-1.71,2.54-3.83,3.37-6.34c0.82-2.51,1.24-5.45,1.24-8.82c0-3.37-0.41-6.3-1.24-8.82
				c-0.83-2.51-1.95-4.62-3.37-6.34c-1.42-1.72-3.09-3.01-5-3.87c-1.92-0.86-3.99-1.29-6.24-1.29H429.85z"/>
		</g>
	</g>
	<g>
		<path d="M22.5,260.28c0.8,0.92,1.2,2.12,1.2,3.6c0,1.92-0.68,3.4-2.04,4.44c-1.36,1.04-3.36,1.56-6,1.56H5.83v-22.19h9.22
			c2.37,0,4.22,0.49,5.55,1.46c1.33,0.97,2,2.38,2,4.22c0,1.25-0.32,2.3-0.95,3.15c-0.63,0.86-1.52,1.49-2.66,1.92
			C20.52,258.74,21.7,259.36,22.5,260.28z M8.14,257.73h6.78c1.71,0,3.03-0.35,3.95-1.04c0.92-0.7,1.38-1.71,1.38-3.04
			s-0.46-2.35-1.38-3.04c-0.92-0.7-2.23-1.04-3.95-1.04H8.14V257.73z M21.39,263.72c0-2.79-1.91-4.18-5.74-4.18H8.14V268h7.51
			C19.48,268,21.39,266.57,21.39,263.72z"/>
		<path d="M45.81,257.38c1.38,1.18,2.08,2.92,2.08,5.2c0,2.39-0.74,4.2-2.2,5.44s-3.59,1.86-6.35,1.86h-8.81v-22.19h2.31v7.92h6.97
			C42.42,255.61,44.43,256.2,45.81,257.38z M43.94,266.64c1.07-0.91,1.6-2.25,1.6-4.02c0-3.4-2.09-5.1-6.28-5.1h-6.43V268h6.43
			C41.31,268,42.87,267.55,43.94,266.64z M51.72,247.68h2.31v22.19h-2.31V247.68z"/>
		<path d="M69.82,259.7h-5.07v10.18h-2.28v-22.19h2.28v9.95h5.07l7.51-9.95h2.53l-8.24,10.78l8.71,11.41h-2.69L69.82,259.7z"/>
		<path d="M102.37,247.68l-10.08,18.67c-0.72,1.33-1.56,2.32-2.52,2.96c-0.96,0.64-2.01,0.97-3.16,0.97c-0.85,0-1.75-0.2-2.73-0.6
			l0.67-1.9c0.76,0.3,1.46,0.44,2.09,0.44c1.46,0,2.65-0.79,3.58-2.38l0.63-1.08l-9-17.09h2.5l7.73,15.02l7.92-15.02H102.37z"/>
		<path d="M125.63,247.68v22.19h-2.31v-20.16h-14.04v20.16h-2.31v-22.19H125.63z"/>
		<path d="M174.9,260.24c0.84,0.95,1.25,2.09,1.25,3.42c0,1.29-0.4,2.42-1.21,3.39c-0.8,0.97-1.87,1.72-3.2,2.23
			c-1.33,0.52-2.78,0.78-4.34,0.78c-1.48,0-2.93-0.24-4.36-0.71c-1.43-0.47-2.71-1.19-3.85-2.14l0.86-1.68
			c0.97,0.82,2.08,1.45,3.33,1.89c1.25,0.43,2.5,0.65,3.77,0.65c1.2,0,2.31-0.19,3.33-0.57c1.01-0.38,1.82-0.92,2.42-1.63
			c0.6-0.71,0.9-1.55,0.9-2.52c0-1.29-0.51-2.28-1.52-2.98c-1.02-0.7-2.44-1.04-4.28-1.04h-4.75v-1.9h4.63c1.56,0,2.78-0.33,3.66-1
			c0.88-0.67,1.32-1.59,1.32-2.77c0-1.31-0.56-2.34-1.68-3.09c-1.12-0.75-2.52-1.13-4.22-1.13c-1.06,0-2.12,0.15-3.2,0.46
			c-1.08,0.31-2.1,0.77-3.07,1.38l-0.79-1.93c2.2-1.31,4.57-1.96,7.13-1.96c1.5,0,2.87,0.24,4.12,0.73
			c1.25,0.49,2.23,1.18,2.96,2.09c0.73,0.91,1.09,1.98,1.09,3.2c0,1.18-0.33,2.2-0.98,3.06c-0.65,0.86-1.57,1.46-2.76,1.82
			C172.92,258.63,174.07,259.28,174.9,260.24z"/>
		<path d="M197.13,263.94h-12.36l-2.66,5.93h-2.44l10.14-22.19h2.31l10.14,22.19h-2.47L197.13,263.94z M196.28,262.04l-5.32-11.92
			l-5.33,11.92H196.28z"/>
		<path d="M224.93,247.68v22.19h-2.31v-20.16H211.9l-0.25,7.41c-0.11,3.06-0.35,5.53-0.74,7.4s-0.99,3.26-1.79,4.18
			c-0.8,0.92-1.87,1.38-3.2,1.38c-0.57,0-1.16-0.07-1.77-0.22l0.19-2.09c0.36,0.09,0.71,0.13,1.05,0.13c0.93,0,1.68-0.37,2.27-1.11
			c0.58-0.74,1.02-1.88,1.32-3.44c0.3-1.55,0.5-3.61,0.6-6.16l0.32-9.51H224.93z"/>
		<path d="M237.12,268.59c-1.79-0.98-3.18-2.33-4.18-4.04c-1-1.71-1.51-3.63-1.51-5.77s0.5-4.06,1.51-5.77
			c1-1.71,2.4-3.06,4.18-4.04c1.78-0.98,3.78-1.47,5.97-1.47c2.2,0,4.18,0.49,5.94,1.46c1.76,0.97,3.15,2.32,4.17,4.04
			c1.02,1.72,1.52,3.65,1.52,5.78s-0.51,4.06-1.52,5.78c-1.01,1.72-2.4,3.07-4.17,4.04s-3.75,1.46-5.94,1.46
			C240.89,270.06,238.9,269.57,237.12,268.59z M247.84,266.78c1.41-0.79,2.52-1.89,3.33-3.3c0.8-1.4,1.2-2.97,1.2-4.71
			c0-1.73-0.4-3.3-1.2-4.71c-0.8-1.4-1.91-2.5-3.33-3.3c-1.42-0.79-3-1.19-4.75-1.19c-1.75,0-3.34,0.39-4.77,1.19
			s-2.55,1.89-3.36,3.3c-0.81,1.4-1.22,2.98-1.22,4.71c0,1.73,0.41,3.3,1.22,4.71c0.81,1.4,1.93,2.5,3.36,3.3
			c1.43,0.79,3.02,1.19,4.77,1.19C244.84,267.97,246.43,267.57,247.84,266.78z"/>
		<path d="M275.39,249.71h-11.82l0.03,20.16h-2.31v-22.19h14.1V249.71z"/>
		<path d="M311.88,268.59c-1.79-0.98-3.18-2.33-4.18-4.04c-1-1.71-1.51-3.63-1.51-5.77s0.5-4.06,1.51-5.77s2.4-3.06,4.18-4.04
			s3.78-1.47,5.97-1.47c2.2,0,4.18,0.49,5.94,1.46c1.76,0.97,3.16,2.32,4.17,4.04c1.01,1.72,1.52,3.65,1.52,5.78
			s-0.51,4.06-1.52,5.78c-1.01,1.72-2.4,3.07-4.17,4.04c-1.76,0.97-3.75,1.46-5.94,1.46C315.66,270.06,313.67,269.57,311.88,268.59z
			 M322.61,266.78c1.42-0.79,2.52-1.89,3.33-3.3s1.21-2.97,1.21-4.71c0-1.73-0.4-3.3-1.21-4.71c-0.8-1.4-1.91-2.5-3.33-3.3
			c-1.42-0.79-3-1.19-4.75-1.19c-1.75,0-3.34,0.39-4.77,1.19c-1.43,0.79-2.55,1.89-3.36,3.3c-0.81,1.4-1.22,2.98-1.22,4.71
			c0,1.73,0.41,3.3,1.22,4.71c0.81,1.4,1.93,2.5,3.36,3.3c1.43,0.79,3.02,1.19,4.77,1.19C319.61,267.97,321.19,267.57,322.61,266.78
			z"/>
		<path d="M357.6,267.84v7.23h-2.19v-5.2h-19.36v-22.19h2.31v20.16h13.41v-20.16h2.31v20.16H357.6z"/>
		<path d="M378.9,267.84v2.03h-15.69v-22.19h15.21v2.03h-12.87v7.89h11.47v2h-11.47v8.24H378.9z"/>
		<path d="M403.59,247.68v22.19h-2.31v-10.24h-13.88v10.24h-2.34v-22.19h2.34v9.89h13.88v-9.89H403.59z"/>
		<path d="M419.37,259.7h-5.07v10.18h-2.28v-22.19h2.28v9.95h5.07l7.51-9.95h2.54l-8.24,10.78l8.72,11.41h-2.69L419.37,259.7z"/>
		<path d="M448.41,263.94h-12.36l-2.66,5.93h-2.44l10.14-22.19h2.31l10.14,22.19h-2.47L448.41,263.94z M447.55,262.04l-5.32-11.92
			l-5.33,11.92H447.55z"/>
	</g>
	<g>
		<path class="st1" d="M222.6,115.51c3.14,0,5.7-2.56,5.7-5.71c0-3.14-2.56-5.71-5.7-5.71c-3.14,0-5.71,2.56-5.71,5.71
			C216.9,112.94,219.46,115.51,222.6,115.51z"/>
		<polygon class="st1" points="219.47,5.79 225.73,5.79 222.6,12.05 		"/>
		
			<rect x="211.46" y="6.27" transform="matrix(0.9945 -0.1044 0.1044 0.9945 0.2423 22.1843)" class="st1" width="1.05" height="5.01"/>
		
			<rect x="200.95" y="7.94" transform="matrix(0.9782 -0.2079 0.2079 0.9782 2.2302 42.1072)" class="st1" width="1.05" height="5.01"/>
		
			<rect x="190.68" y="10.69" transform="matrix(0.951 -0.3092 0.3092 0.951 5.2882 59.7597)" class="st1" width="1.05" height="5.01"/>
		
			<rect x="180.76" y="14.5" transform="matrix(0.9135 -0.4067 0.4067 0.9135 8.757 75.2049)" class="st1" width="1.05" height="5.01"/>
		
			<rect x="162.37" y="25.12" transform="matrix(0.809 -0.5878 0.5878 0.809 14.8724 101.0176)" class="st1" width="1.05" height="5.01"/>
		
			<rect x="154.1" y="31.81" transform="matrix(0.7431 -0.6692 0.6692 0.7431 16.7619 112.2884)" class="st1" width="1.05" height="5.01"/>
		
			<rect x="146.58" y="39.33" transform="matrix(0.6692 -0.743 0.743 0.6692 17.5756 123.1461)" class="st1" width="1.05" height="5.01"/>
		
			<rect x="139.89" y="47.59" transform="matrix(0.5877 -0.8091 0.8091 0.5877 17.3609 134.2594)" class="st1" width="1.05" height="5.01"/>
		
			<rect x="129.28" y="65.98" transform="matrix(0.4067 -0.9135 0.9135 0.4067 14.4421 159.2103)" class="st1" width="1.05" height="5.01"/>
		
			<rect x="125.47" y="75.91" transform="matrix(0.3091 -0.951 0.951 0.3091 12.4744 173.9955)" class="st1" width="1.05" height="5.01"/>
		
			<rect x="121.05" y="96.68" transform="matrix(0.1045 -0.9945 0.9945 0.1045 10.2281 209.7278)" class="st1" width="1.05" height="5.01"/>
		
			<rect x="321.12" y="98.66" transform="matrix(0.9945 -0.1044 0.1044 0.9945 -8.588 34.3369)" class="st1" width="5.01" height="1.05"/>
		
			<rect x="319.46" y="88.16" transform="matrix(0.9782 -0.2079 0.2079 0.9782 -11.4014 68.8599)" class="st1" width="5.01" height="1.05"/>
		
			<rect x="316.7" y="77.89" transform="matrix(0.951 -0.3091 0.3091 0.951 -8.6063 102.4945)" class="st1" width="5.01" height="1.05"/>
		
			<rect x="312.89" y="67.96" transform="matrix(0.9135 -0.4068 0.4068 0.9135 -0.5817 134.2354)" class="st1" width="5.01" height="1.05"/>
		
			<rect x="302.28" y="49.57" transform="matrix(0.809 -0.5878 0.5878 0.809 28.7697 188.7263)" class="st1" width="5.01" height="1.05"/>
		
			<rect x="295.58" y="41.31" transform="matrix(0.7432 -0.669 0.669 0.7432 48.5538 210.1737)" class="st1" width="5.01" height="1.05"/>
		
			<rect x="288.07" y="33.79" transform="matrix(0.6692 -0.7431 0.7431 0.6692 70.6158 227.2602)" class="st1" width="5.01" height="1.05"/>
		
			<rect x="279.8" y="27.1" transform="matrix(0.5879 -0.809 0.809 0.5879 94.0079 239.7627)" class="st1" width="5.01" height="1.05"/>
		
			<rect x="261.41" y="16.48" transform="matrix(0.4067 -0.9136 0.9136 0.4067 141.0591 251.1981)" class="st1" width="5.01" height="1.05"/>
		
			<rect x="251.48" y="12.67" transform="matrix(0.309 -0.9511 0.9511 0.309 162.9668 250.6805)" class="st1" width="5.01" height="1.05"/>
		
			<rect x="241.22" y="9.92" transform="matrix(0.2079 -0.9781 0.9781 0.2079 182.8347 246.6653)" class="st1" width="5.01" height="1.05"/>
		
			<rect x="230.71" y="8.25" transform="matrix(0.1045 -0.9945 0.9945 0.1045 200.1183 239.8025)" class="st1" width="5.01" height="1.05"/>
		<polygon class="st1" points="167.88,21.29 173.3,18.16 173.72,25.15 		"/>
		<polygon class="st1" points="311.11,55.08 314.25,60.51 307.26,60.93 		"/>
		<polygon class="st1" points="271.9,18.16 277.32,21.29 271.48,25.15 		"/>
		
			<rect x="122.71" y="86.18" transform="matrix(0.2079 -0.9781 0.9781 0.2079 10.8719 190.7904)" class="st1" width="1.05" height="5.01"/>
		<polygon class="st1" points="130.96,60.51 134.09,55.08 137.94,60.93 		"/>
		<path class="st1" d="M264.9,78.1c-17.15,16.17-22.88,20.61-39.66,30.45l-0.98-1.26c13.57-13.94,19.26-18.43,39.06-31.22
			l33.81-26.49l1.59,2.03L264.9,78.1z"/>
		<path class="st1" d="M188.92,81.14c1.86-2.21,5.21-2.45,7.48-0.53c2.27,1.92,2.6,5.26,0.74,7.47c-1.86,2.21-5.21,2.44-7.48,0.53
			C187.39,86.69,187.06,83.35,188.92,81.14L188.92,81.14z M201.39,89.5L201.39,89.5c0,0-0.44-0.2-1-0.38
			c-0.26-0.08-0.44-0.25-0.55-0.5l-0.51-1.17c1.17-2.68,0.45-5.97-1.96-8c-1.56-1.32-3.53-1.85-5.38-1.61l-14.51-6.72
			c-0.12-0.06-0.26-0.03-0.35,0.08c-0.09,0.1-0.09,0.25-0.02,0.36l9.07,13.17c0.08,1.87,0.93,3.72,2.5,5.04
			c2.38,2,5.67,2.18,8.11,0.65l1.37,0.3c0.24,0.05,0.43,0.18,0.56,0.39c0.17,0.26,0.38,0.57,0.57,0.85
			c3.47,4.96,9.7,10.39,20.51,17.37l1.88-2.19C213.14,97.51,206.83,92.18,201.39,89.5z"/>
		<path class="st1" d="M114.88,117.21c-0.17-2.45-0.28-4.91-0.28-7.41c0-29.82,12.09-56.82,31.63-76.37
			C165.78,13.89,192.78,1.8,222.6,1.8s56.82,12.09,76.37,31.63c19.54,19.54,31.63,46.54,31.63,76.37c0,2.49-0.11,4.96-0.28,7.41
			h0.53c0.17-2.45,0.28-4.91,0.28-7.41c0-29.97-12.15-57.1-31.79-76.74C279.7,13.42,252.57,1.28,222.6,1.28
			c-29.97,0-57.1,12.15-76.74,31.79c-19.64,19.64-31.79,46.77-31.79,76.74c0,2.49,0.11,4.96,0.28,7.41H114.88z"/>
		<path class="st1" d="M124.09,117.21c-0.18-2.45-0.31-4.91-0.31-7.41c0-27.29,11.06-51.99,28.94-69.87
			c17.88-17.88,42.59-28.94,69.87-28.94c27.29,0,51.99,11.06,69.87,28.94c17.88,17.88,28.94,42.59,28.94,69.87
			c0,2.49-0.12,4.96-0.31,7.41h0.53c0.18-2.45,0.3-4.91,0.3-7.41c0-27.43-11.12-52.27-29.1-70.24
			c-17.98-17.98-42.81-29.1-70.24-29.1c-27.43,0-52.27,11.12-70.24,29.1c-17.98,17.98-29.1,42.81-29.1,70.24
			c0,2.49,0.12,4.96,0.3,7.41H124.09z"/>
		<path class="st1" d="M119.07,117.21c-0.17-2.45-0.29-4.91-0.29-7.41c0-28.67,11.62-54.63,30.41-73.41
			C167.97,17.6,193.93,5.98,222.6,5.98c28.67,0,54.63,11.62,73.41,30.41c18.79,18.79,30.41,44.74,30.41,73.41
			c0,2.49-0.12,4.96-0.29,7.41h0.53c0.17-2.45,0.29-4.91,0.29-7.41c0-28.81-11.68-54.9-30.56-73.79
			C277.5,17.13,251.42,5.45,222.6,5.45c-28.82,0-54.9,11.68-73.79,30.56c-18.88,18.88-30.56,44.97-30.56,73.79
			c0,2.49,0.12,4.96,0.29,7.41H119.07z"/>
		<path class="st1" d="M116.16,117.21c-0.17-2.45-0.28-4.91-0.28-7.41c0-14.46,2.87-28.25,8.08-40.82
			c5.41-13.05,13.33-24.8,23.18-34.65c9.85-9.84,21.6-17.77,34.65-23.18c12.57-5.2,26.35-8.08,40.82-8.08
			c14.46,0,28.25,2.87,40.82,8.08c13.05,5.41,24.8,13.34,34.65,23.18c9.84,9.84,17.77,21.6,23.18,34.65
			c5.2,12.57,8.08,26.35,8.08,40.82c0,2.49-0.12,4.96-0.28,7.41h3.09c0.16-2.45,0.28-4.91,0.28-7.41c0-14.86-2.96-29.05-8.32-41.99
			c-5.57-13.44-13.72-25.54-23.84-35.66c-10.12-10.12-22.21-18.27-35.66-23.84C251.65,2.96,237.46,0,222.6,0
			c-14.87,0-29.05,2.96-41.99,8.32c-13.44,5.57-25.54,13.72-35.66,23.84c-10.12,10.12-18.27,22.21-23.84,35.66
			c-5.36,12.94-8.32,27.12-8.32,41.99c0,2.49,0.11,4.96,0.28,7.41H116.16z"/>
	</g>
	<rect x="0.06" y="233.66" class="st0" width="458.58" height="0.99"/>
	
		<rect x="131.95" y="258.28" transform="matrix(6.123234e-17 -1 1 6.123234e-17 -115.7316 401.8238)" class="st0" width="22.19" height="0.99"/>
	
		<rect x="280.71" y="258.28" transform="matrix(6.123234e-17 -1 1 6.123234e-17 33.0232 550.5786)" class="st0" width="22.19" height="0.99"/>
</g>
</svg>
